Coordinates
version=1
nRows=11
nColumns=40
inDegrees=yes

Units are S.I. units (second, meters, Newtons, ...)
Angles are in degrees.

endheader
time	pelvis_tilt	pelvis_list	pelvis_rotation	pelvis_tx	pelvis_ty	pelvis_tz	hip_flexion_r	hip_adduction_r	hip_rotation_r	knee_angle_r	knee_angle_r_beta	ankle_angle_r	subtalar_angle_r	mtp_angle_r	hip_flexion_l	hip_adduction_l	hip_rotation_l	knee_angle_l	knee_angle_l_beta	ankle_angle_l	subtalar_angle_l	mtp_angle_l	lumbar_extension	lumbar_bending	lumbar_rotation	arm_flex_r	arm_add_r	arm_rot_r	elbow_flex_r	pro_sup_r	wrist_flex_r	wrist_dev_r	arm_flex_l	arm_add_l	arm_rot_l	elbow_flex_l	pro_sup_l	wrist_flex_l	wrist_dev_l
      0.33000000	     -2.65040825	     -1.37518128	      9.48946086	     -0.52963284	      0.87841020	      1.09783902	     29.17427728	     -3.19403460	    -12.96955811	    -28.67787091	     -0.50052327	     -1.54147252	     -9.88002039	     10.47196254	     -5.22449424	      3.12202729	      3.95927979	    -40.14140144	     -0.70059962	     -8.77939538	      9.17964473	     -5.16285085	     -3.89110712	      0.23293513	    -13.77408705	    -12.74409260	    -10.12221460	    -16.56087982	     14.94032907	     89.95437384	      0.00000000	      0.00000000	      4.96454606	     13.65593211	     16.26359458	     67.20557256	     89.95437384	      0.00000000	      0.00000000
      0.34000000	     -2.46985123	     -1.56717816	      9.32225769	     -0.51458654	      0.87929275	      1.09901782	     28.38057119	     -2.52501019	    -12.26618834	    -29.34151568	     -0.51210606	     -0.79421534	    -10.07509860	     10.19585523	     -4.19191417	      3.74078333	      3.94513405	    -42.59696349	     -0.74345726	    -13.92307926	      9.69311208	     -4.38223818	     -3.89823620	      0.56995581	    -13.56712602	    -12.44118338	    -10.29624274	    -16.47101242	     15.07097745	     89.95437384	      0.00000000	      0.00000000	      4.15569289	     13.66231875	     16.25350240	     67.31939855	     89.95437384	      0.00000000	      0.00000000
      0.35000000	     -2.38999577	     -1.73759765	      9.07091946	     -0.49977503	      0.88017649	      1.10027807	     27.55865022	     -1.88559580	    -11.73059384	    -29.80368080	     -0.52017236	      0.14864887	    -10.27951733	      9.92589340	     -2.92581082	      4.25046793	      3.74614748	    -45.13311999	     -0.78772155	    -18.18087325	     10.01176586	     -3.71705877	     -3.81234894	      0.84676110	    -13.22732045	    -12.16876882	    -10.44252438	    -16.40302673	     15.41268785	     89.95437384	      0.00000000	      0.00000000	      3.38341200	     13.62746262	     16.17275246	     67.25661333	     89.95437384	      0.00000000	      0.00000000
      0.36000000	     -2.39767790	     -1.84633123	      8.80734517	     -0.48533127	      0.88103545	      1.10152066	     26.75811245	     -1.36384016	    -11.37055817	    -30.19268871	     -0.52696183	      1.17076244	    -10.46103834	      9.66149005	     -1.41041105	      4.61825792	      3.48622782	    -47.84767057	     -0.83509939	    -21.32409555	     10.36652087	     -3.13240604	     -3.67896035	      1.02843602	    -12.83095974	    -11.91951603	    -10.55822815	    -16.31792998	     15.92865569	     89.95437384	      0.00000000	      0.00000000	      2.63112159	     13.62437633	     15.95252368	     67.02871640	     89.95437384	      0.00000000	      0.00000000
      0.37000000	     -2.77629934	     -2.05102373	      8.52362526	     -0.47170930	      0.88132266	      1.10278029	     26.41746108	     -0.82504027	    -11.10963410	    -30.52070081	     -0.53268672	      1.93411840	    -10.60187262	      9.52233502	      0.91958896	      5.01748485	      3.30647657	    -51.04500153	     -0.89090334	    -23.95719280	     11.26101927	     -2.28672682	     -3.18307792	      1.26331040	    -12.30946387	    -11.76752817	    -10.64480026	    -16.31742572	     16.72451384	     89.95437384	      0.00000000	      0.00000000	      1.95359580	     13.49953779	     15.75266379	     66.65725358	     89.95437384	      0.00000000	      0.00000000
      0.38000000	     -2.82119088	     -2.08475570	      8.31642261	     -0.45814704	      0.88229018	      1.10369824	     25.52733321	     -0.47179000	    -11.04634496	    -30.60112645	     -0.53409041	      2.93731816	    -10.64699266	      9.32087633	      2.85451621	      5.20800032	      3.08981361	    -54.01978279	     -0.94282307	    -25.68354076	     12.22227538	     -1.65066811	     -3.11793329	      1.35809962	    -11.85045299	    -11.46343633	    -10.70639226	    -16.23029393	     17.46287106	     89.95437384	      0.00000000	      0.00000000	      1.33381417	     13.47652412	     15.30114867	     66.12643829	     89.95437384	      0.00000000	      0.00000000
      0.39000000	     -2.91316791	     -2.19908611	      8.08850596	     -0.44495378	      0.88318524	      1.10476257	     24.62597975	     -0.06998800	    -11.11163065	    -30.49461840	     -0.53223150	      3.84967374	    -10.47045724	      9.08452721	      4.93958960	      5.47794736	      3.06748847	    -56.94640006	     -0.99390218	    -25.97330244	     13.71563677	     -1.03968091	     -3.04337032	      1.52406495	    -11.30536250	    -11.19302576	    -10.75186392	    -16.15437419	     18.38870646	     89.95437384	      0.00000000	      0.00000000	      0.78478394	     13.39763112	     14.94211186	     65.46187878	     89.95437384	      0.00000000	      0.00000000
      0.40000000	     -3.11111013	     -2.28026617	      7.83350251	     -0.43188226	      0.88401233	      1.10540012	     23.74840673	      0.25267305	    -11.19321777	    -30.21242752	     -0.52730634	      4.72285474	    -10.12901550	      8.78458027	      7.06347046	      5.59448033	      3.10526057	    -59.65046913	     -1.04109709	    -24.85136060	     15.01783428	     -0.44068506	     -2.85223593	      1.68213347	    -10.72657777	    -10.98902861	    -10.85950601	    -15.97790706	     19.51900594	     89.95437384	      0.00000000	      0.00000000	      0.20911666	     13.15751269	     14.60105541	     64.61010774	     89.95437384	      0.00000000	      0.00000000
      0.41000000	     -3.12490721	     -2.26344277	      7.54452497	     -0.41866245	      0.88531136	      1.10624644	     22.58156174	      0.52194354	    -11.19516062	    -29.80019615	     -0.52011154	      5.53138429	     -9.77933270	      8.49470358	      8.96327445	      5.68476390	      3.33812540	    -61.93573057	     -1.08098242	    -23.45711937	     16.18978618	      0.05433715	     -2.86813317	      1.71637393	    -10.09017800	    -10.71463536	    -10.90725779	    -15.86315484	     20.60561039	     89.95437384	      0.00000000	      0.00000000	     -0.32898787	     12.91696639	     14.32797101	     63.55784030	     89.95437384	      0.00000000	      0.00000000
      0.42000000	     -3.24965059	     -2.20724432	      7.23358612	     -0.40561006	      0.88640541	      1.10690872	     21.57214401	      0.69238391	    -11.20084489	    -29.44686012	     -0.51394466	      6.07858562	     -9.51205930	      7.97620443	     11.14661189	      5.68774341	      3.64368021	    -64.34808137	     -1.12308589	    -19.95204109	     15.88466597	     16.30822519	     -2.78377058	      1.71360706	     -9.41370204	    -10.53903784	    -11.02292386	    -15.59523056	     21.91996682	     89.95437384	      0.00000000	      0.00000000	     -0.86938572	     12.65307178	     14.01237925	     62.39157558	     89.95437384	      0.00000000	      0.00000000
      0.43000000	     -3.13347680	     -2.06074900	      6.99584465	     -0.39236071	      0.88797011	      1.10750164	     20.14351635	      0.85225701	    -10.96156551	    -28.85974133	     -0.50369751	      6.91871709	     -9.18541795	      7.69506933	     12.82971607	      5.52773603	      3.75439788	    -65.97286590	     -1.15144373	    -18.22845446	     16.88213033	     15.99654334	     -2.95826661	      1.60055588	     -8.85117296	    -10.19042001	    -11.06707326	    -15.49051114	     23.04825856	     89.95437384	      0.00000000	      0.00000000	     -1.41305475	     12.41967047	     13.76369782	     61.05238366	     89.95437384	      0.00000000	      0.00000000
